<?xml version="1.0" standalone="no"?>
<!DOCTYPE svg PUBLIC "-//W3C//DTD SVG 20010904//EN"
 "http://www.w3.org/TR/2001/REC-SVG-20010904/DTD/svg10.dtd">
<svg version="1.0" xmlns="http://www.w3.org/2000/svg"
 width="1420.000000pt" height="895.000000pt" viewBox="0 0 1420.000000 895.000000"
 preserveAspectRatio="xMidYMid meet">

<g transform="translate(0.000000,895.000000) scale(0.100000,-0.100000)"
fill="#000000" stroke="none">
<path d="M7409 8913 c-35 -19 -185 -101 -334 -180 -148 -80 -299 -162 -335
-183 -36 -20 -148 -81 -250 -135 -220 -117 -678 -367 -772 -422 l-67 -39 226
-134 c125 -74 230 -136 233 -138 4 -1 178 89 386 201 534 287 881 472 935 498
l46 22 667 -362 c366 -198 674 -361 684 -361 10 0 38 13 63 28 24 16 125 75
223 132 116 67 173 106 165 110 -170 92 -1534 844 -1584 875 -38 23 -104 60
-146 83 l-75 40 -65 -35z"/>
<path d="M7360 7873 c-271 -28 -516 -175 -708 -427 -12 -16 -22 -32 -22 -36 0
-9 791 -443 828 -455 13 -4 38 -1 55 5 57 22 779 425 784 437 7 17 -80 124
-174 214 -209 199 -477 292 -763 262z"/>
<path d="M5650 7507 l1 -332 137 -84 c558 -343 1334 -787 1595 -912 82 -39 91
-41 122 -30 87 31 1193 655 1577 890 l207 126 1 318 0 318 -22 -12 c-13 -7
-115 -65 -228 -129 -192 -110 -1114 -620 -1408 -779 -74 -40 -141 -73 -150
-73 -29 -1 -1396 757 -1619 898 l-213 133 0 -332z"/>
<path d="M4977 7440 c-95 -16 -184 -93 -207 -179 -14 -54 -14 -1557 0 -1701
40 -404 149 -772 341 -1151 408 -809 1127 -1456 2057 -1853 81 -34 182 -75
224 -90 l76 -28 69 22 c108 35 414 167 567 245 790 401 1400 1005 1766 1750
162 329 252 629 306 1020 21 153 31 684 24 1305 -5 436 -6 457 -26 501 -29 63
-74 110 -131 139 -46 24 -56 25 -285 28 l-238 3 0 -250 0 -251 105 0 105 0 0
-527 c0 -584 -10 -813 -40 -1000 -81 -498 -287 -956 -616 -1368 -116 -145
-369 -397 -520 -517 -132 -106 -350 -256 -488 -337 -167 -98 -552 -281 -591
-281 -24 0 -256 102 -400 175 -1006 514 -1685 1377 -1845 2346 -30 183 -37
403 -31 1004 l6 540 123 3 122 3 0 229 0 230 -212 -1 c-117 -1 -234 -5 -261
-9z"/>
<path d="M5651 6722 l0 -317 232 -151 c364 -238 1471 -881 1574 -915 32 -10
42 -7 140 40 161 79 1071 597 1283 732 8 5 101 61 205 125 105 63 193 119 198
123 4 4 6 154 5 333 l-3 326 -120 -70 c-243 -143 -1562 -891 -1623 -922 l-64
-31 -161 84 c-272 142 -1219 680 -1449 824 l-218 136 1 -317z m3236 -89 c-2
-16 -4 -3 -4 27 0 30 2 43 4 28 2 -16 2 -40 0 -55z m0 -165 c-3 -8 -6 -5 -6 6
-1 11 2 17 5 13 3 -3 4 -12 1 -19z m-1400 -710 c-3 -8 -6 -5 -6 6 -1 11 2 17
5 13 3 -3 4 -12 1 -19z"/>
<path d="M5650 5938 l0 -323 253 -166 c539 -356 1250 -776 1531 -905 l59 -27
146 74 c218 110 960 537 1161 667 110 71 466 327 474 341 2 3 7 145 11 314 l7
308 -201 -123 c-110 -68 -245 -148 -298 -179 -718 -408 -1107 -626 -1195 -670
-58 -30 -108 -61 -111 -69 -4 -13 -5 -13 -6 0 -1 9 -283 173 -694 404 -398
224 -781 448 -902 526 -115 75 -216 140 -222 144 -10 6 -13 -60 -13 -316z
m3227 -555 c-2 -27 -3 -5 -3 47 0 52 1 74 3 48 2 -27 2 -69 0 -95z m-1390
-745 c-1 -62 -3 -14 -3 107 0 121 2 172 3 113 2 -59 2 -158 0 -220z"/>
<path d="M5677 5392 c19 -98 87 -306 147 -447 233 -545 638 -995 1201 -1335
163 -98 401 -212 445 -213 60 -2 384 165 590 303 239 161 547 442 700 638 218
279 381 610 465 944 14 53 25 104 25 113 0 11 -37 -9 -122 -68 -68 -46 -229
-148 -358 -227 -245 -149 -1011 -583 -1185 -671 l-100 -51 -688 397 c-444 255
-768 449 -912 545 l-222 148 14 -76z"/>
<path d="M1869 1653 c-45 -4 -49 -8 -395 -354 l-349 -349 1 -123 c1 -105 4
-131 26 -189 38 -102 86 -173 160 -242 115 -107 242 -156 406 -156 l94 0 -49
38 c-127 101 -224 248 -257 392 -20 83 -20 237 -1 320 38 160 156 325 301 420
187 122 438 143 644 54 50 -22 53 -22 30 -4 -171 140 -399 212 -611 193z"/>
<path d="M13670 1630 c0 -34 15 -40 23 -10 3 14 14 20 31 20 l26 0 0 -96 c0
-80 -3 -99 -17 -110 -16 -12 -10 -13 42 -13 52 0 58 1 43 13 -15 11 -18 30
-18 110 0 95 0 96 24 96 16 0 27 -7 31 -21 6 -17 9 -19 16 -8 5 8 9 22 9 32 0
15 -12 17 -105 17 l-105 0 0 -30z"/>
<path d="M13908 1653 c17 -7 17 -204 0 -221 -9 -9 -3 -12 27 -12 30 0 36 3 27
12 -7 7 -12 41 -12 88 l1 75 36 -87 c19 -49 39 -88 43 -88 4 0 22 37 40 83 18
45 37 86 42 92 4 5 8 -27 8 -73 0 -67 -3 -83 -17 -91 -14 -8 -4 -10 42 -10 46
0 56 2 43 10 -15 8 -18 25 -18 114 0 90 2 104 18 108 9 3 -4 5 -29 6 l-46 1
-33 -77 c-17 -43 -33 -79 -35 -81 -1 -1 -17 33 -35 78 l-32 80 -42 -1 c-22 0
-35 -3 -28 -6z"/>
<path d="M8686 1559 c-135 -18 -275 -84 -346 -165 -125 -142 -131 -376 -14
-530 41 -54 131 -113 310 -203 128 -64 170 -91 207 -130 117 -125 76 -311 -86
-382 -42 -18 -70 -23 -142 -23 -52 0 -107 6 -130 15 l-40 14 -39 160 c-21 88
-40 162 -42 164 -2 2 -18 1 -36 -3 l-34 -6 -27 -190 c-16 -105 -26 -194 -22
-199 9 -16 185 -52 289 -60 305 -24 539 68 634 248 73 138 68 316 -13 438 -50
76 -129 133 -305 221 -185 92 -238 132 -274 203 -60 121 -12 243 119 305 57
27 173 32 234 11 34 -12 35 -13 73 -151 20 -76 39 -140 41 -142 1 -2 16 0 32
4 28 8 29 10 61 178 18 93 29 172 25 176 -16 18 -293 60 -373 57 -18 -1 -64
-6 -102 -10z"/>
<path d="M9620 1545 c-146 -33 -281 -129 -334 -237 -54 -113 -54 -267 0 -375
46 -91 122 -150 306 -243 90 -46 186 -100 214 -121 100 -74 131 -195 80 -306
-46 -99 -156 -150 -300 -140 -144 10 -138 4 -182 183 -21 86 -41 159 -44 164
-3 5 -19 6 -35 2 l-29 -8 -28 -189 c-22 -148 -25 -190 -16 -197 7 -4 54 -17
103 -29 128 -30 333 -37 445 -15 288 59 449 261 410 514 -26 163 -106 247
-360 376 -243 124 -300 182 -300 303 1 144 107 237 270 237 41 0 91 -5 110
-12 35 -12 36 -14 64 -120 16 -59 33 -122 38 -139 7 -27 14 -33 37 -33 l29 0
31 163 c17 89 31 169 31 178 0 42 -401 75 -540 44z"/>
<path d="M3079 1543 l-285 -3 4 -29 c4 -26 10 -30 78 -50 47 -14 77 -28 84
-41 12 -23 14 -1239 1 -1258 -4 -8 -43 -24 -85 -36 -42 -12 -77 -25 -77 -29 1
-4 1 -16 1 -27 0 -20 7 -20 315 -20 293 0 315 1 315 18 0 28 -12 38 -70 57
-30 10 -58 23 -62 29 -4 6 -8 140 -8 299 l0 287 28 0 c57 0 65 -9 235 -305
127 -220 156 -266 206 -318 64 -69 99 -81 245 -85 71 -2 157 -1 192 3 62 6 64
7 64 36 0 26 -5 30 -45 40 -107 27 -151 78 -355 414 -57 94 -116 189 -131 211
l-28 42 82 40 c109 53 159 98 199 180 32 64 33 72 33 182 0 109 -2 118 -30
169 -72 130 -220 190 -485 195 -74 2 -264 1 -421 -1z m461 -127 c79 -41 114
-95 131 -205 19 -125 -12 -251 -78 -313 -44 -42 -98 -60 -205 -66 l-98 -5 0
301 c0 231 3 302 13 306 6 3 55 4 107 3 68 -2 105 -8 130 -21z"/>
<path d="M5904 1543 l-290 -3 4 -29 c4 -26 10 -30 78 -50 47 -14 77 -28 84
-41 6 -12 10 -232 10 -634 0 -520 -2 -617 -14 -629 -8 -8 -46 -22 -85 -33 -67
-17 -71 -20 -71 -46 l0 -28 316 0 315 0 -3 27 c-3 23 -11 29 -63 46 -33 11
-63 25 -67 31 -4 6 -8 140 -8 299 l0 287 31 0 c44 0 83 -43 164 -185 219 -384
269 -456 349 -498 34 -18 62 -22 170 -25 71 -2 157 -1 192 3 62 6 64 7 64 36
0 26 -5 30 -45 40 -108 27 -143 67 -355 414 -67 110 -131 212 -141 226 l-19
27 83 40 c109 52 159 98 199 179 29 60 33 78 36 170 4 100 3 106 -27 168 -50
100 -132 156 -280 189 -87 20 -225 24 -627 19z m463 -131 c103 -54 150 -184
123 -346 -26 -163 -99 -223 -282 -234 l-98 -5 0 301 c0 231 3 302 13 306 6 3
55 4 107 3 74 -3 104 -8 137 -25z"/>
<path d="M13200 1538 c-99 -11 -180 -56 -275 -152 -44 -45 -97 -110 -118 -146
-78 -135 -113 -306 -104 -509 10 -237 75 -400 212 -536 172 -172 377 -211 585
-112 94 45 213 166 268 273 72 140 87 211 87 419 0 157 -3 191 -23 263 -96
353 -326 535 -632 500z m166 -149 c132 -64 200 -304 192 -677 -7 -281 -49
-424 -150 -505 -41 -33 -114 -46 -183 -33 -81 16 -163 130 -198 276 -57 235
-35 617 47 795 63 138 182 198 292 144z"/>
<path d="M2 1510 c3 -21 13 -27 73 -45 39 -11 76 -24 83 -28 9 -6 12 -147 12
-647 l0 -639 -86 -26 c-75 -24 -85 -29 -82 -48 l3 -22 338 -3 337 -2 0 24 c0
22 -8 27 -69 46 -37 11 -73 20 -79 20 -6 0 -18 7 -26 16 -14 13 -16 55 -16
300 l0 286 140 -4 c112 -2 143 -6 150 -18 5 -8 17 -48 27 -87 17 -72 17 -73
50 -73 l33 0 0 231 0 231 -32 -7 c-18 -4 -33 -8 -34 -9 -1 0 -9 -32 -18 -71
-10 -38 -22 -75 -28 -82 -8 -9 -49 -13 -149 -13 l-139 0 0 295 0 295 207 -2
208 -3 33 -124 c18 -69 34 -126 36 -128 2 -2 15 -1 29 2 23 6 26 15 50 143 15
75 29 156 33 178 l6 42 -546 -2 -547 -1 3 -25z"/>
<path d="M4285 1530 c-1 -3 3 -88 11 -190 7 -102 14 -188 14 -192 0 -5 12 -8
28 -8 26 0 29 6 77 143 l50 142 153 3 152 3 -2 -638 -3 -638 -93 -27 c-52 -14
-95 -28 -97 -30 -2 -2 -2 -14 2 -26 l5 -22 354 0 354 0 0 24 c0 26 -11 31
-110 56 -25 7 -55 18 -67 26 l-23 14 0 630 0 630 154 0 153 0 27 -112 c14 -62
29 -128 32 -146 6 -30 10 -33 38 -30 l31 3 32 175 c17 96 32 184 32 196 1 20
0 20 -650 20 -358 0 -652 -3 -654 -6z"/>
<path d="M7100 1520 c0 -27 14 -36 80 -55 36 -10 72 -24 80 -32 13 -12 15 -90
18 -566 2 -304 -1 -590 -5 -637 l-8 -84 -78 -22 c-43 -12 -80 -23 -82 -26 -2
-2 -2 -14 2 -26 l5 -22 538 0 538 0 5 43 c4 23 9 96 12 162 3 66 8 137 11 158
5 34 4 37 -18 37 -12 0 -29 -4 -35 -8 -7 -4 -42 -70 -78 -145 l-66 -137 -212
2 -212 3 -3 298 -2 297 139 0 c161 0 147 8 176 -107 19 -72 19 -73 52 -73 l33
0 0 230 0 230 -33 0 c-33 0 -33 0 -52 -76 -10 -42 -25 -83 -33 -90 -10 -11
-47 -14 -148 -14 l-134 0 0 285 0 285 208 0 208 0 33 -131 c34 -129 34 -130
60 -124 14 4 27 8 28 9 4 4 63 320 63 337 0 16 -45 17 -545 15 -477 -1 -545
-3 -545 -16z"/>
<path d="M10749 1345 c-25 -107 -43 -195 -39 -195 3 0 13 12 22 28 29 48 91
104 143 127 44 20 72 24 248 30 108 3 197 3 197 0 0 -3 -70 -90 -156 -193
-139 -166 -235 -291 -288 -374 l-18 -27 74 25 c147 52 283 33 353 -49 45 -53
65 -120 65 -222 0 -137 -38 -221 -124 -275 -79 -48 -212 -45 -309 8 -58 31
-131 109 -149 158 -6 19 -15 34 -18 34 -4 0 -37 -34 -74 -75 l-67 -75 21 -31
c27 -37 109 -103 164 -131 160 -82 373 -96 532 -37 130 49 237 153 285 277 30
79 38 237 15 314 -34 118 -118 202 -257 257 -57 23 -94 31 -138 31 -34 0 -61
4 -61 8 0 5 14 21 31 38 65 61 439 518 439 536 0 4 -190 8 -423 8 l-423 0 -45
-195z"/>
<path d="M12173 1520 c-85 -22 -117 -38 -201 -97 -172 -122 -302 -381 -321
-638 -18 -258 35 -456 160 -589 188 -201 521 -216 726 -32 109 99 156 211 156
376 0 118 -18 181 -76 267 -137 204 -471 230 -650 51 -26 -26 -49 -48 -50 -48
-8 0 16 177 33 245 53 210 163 328 320 342 121 11 217 -34 286 -137 l44 -65 0
147 0 147 -55 16 c-140 40 -257 45 -372 15z m113 -709 c158 -72 194 -381 64
-558 -78 -107 -247 -112 -324 -10 -133 174 -94 500 69 573 44 19 142 17 191
-5z"/>
<path d="M2106 1422 l-29 -7 42 -29 c103 -72 200 -205 248 -341 25 -72 28 -93
28 -215 0 -126 -2 -141 -31 -221 -63 -176 -188 -317 -349 -394 -117 -56 -178
-70 -305 -69 -114 0 -194 17 -282 58 l-53 25 44 -38 c143 -126 401 -207 592
-187 l66 7 348 349 347 348 -5 129 c-5 148 -24 215 -89 314 -77 120 -200 213
-335 252 -61 18 -195 29 -237 19z"/>
</g>
</svg>
